<svg width="25" height="25" xmlns="http://www.w3.org/2000/svg" xmlns:xlink="http://www.w3.org/1999/xlink" overflow="hidden"><defs><clipPath id="clip0"><rect x="549" y="970" width="25" height="25"/></clipPath></defs><g clip-path="url(#clip0)" transform="translate(-549 -970)"><path d="M558.115 971.823 558.115 991.292 560.427 988.979C560.743 988.685 561.237 988.702 561.531 989.018 561.811 989.318 561.811 989.783 561.531 990.083L557.885 993.729C557.58 994.034 557.086 994.034 556.781 993.729L553.135 990.083C552.831 989.778 552.831 989.284 553.135 988.979 553.44 988.675 553.935 988.675 554.24 988.979L556.552 991.292 556.552 971.823C556.552 971.391 556.902 971.042 557.333 971.042 557.765 971.042 558.115 971.391 558.115 971.823Z" fill="#9DC3E6"/><path d="M566.448 993.177 566.448 973.708 568.76 976.021C569.055 976.336 569.549 976.354 569.865 976.06 570.18 975.766 570.198 975.271 569.904 974.956 569.891 974.942 569.878 974.929 569.865 974.917L566.219 971.271C565.914 970.966 565.42 970.966 565.115 971.271L561.469 974.917C561.164 975.222 561.164 975.716 561.469 976.021 561.774 976.325 562.268 976.325 562.573 976.021L564.885 973.708 564.885 993.177C564.885 993.609 565.235 993.958 565.667 993.958 566.098 993.958 566.448 993.609 566.448 993.177Z" fill="#9DC3E6"/></g></svg>