<svg width="22" height="22" xmlns="http://www.w3.org/2000/svg" xmlns:xlink="http://www.w3.org/1999/xlink" overflow="hidden"><defs><clipPath id="clip0"><rect x="522" y="970" width="22" height="22"/></clipPath></defs><g clip-path="url(#clip0)" transform="translate(-522 -970)"><path d="M539.417 974.125C539.417 975.138 536.544 975.958 533 975.958 529.456 975.958 526.583 975.138 526.583 974.125 526.583 973.112 529.456 972.292 533 972.292 536.544 972.292 539.417 973.112 539.417 974.125Z" fill="#AFABAB"/><path d="M537.583 978.708C537.308 978.708 537.125 978.525 537.125 978.25 537.125 977.975 537.308 977.792 537.583 977.792 537.858 977.792 538.042 977.975 538.042 978.25 538.042 978.525 537.858 978.708 537.583 978.708ZM533 976.875C529.471 976.875 526.583 976.05 526.583 975.042L526.583 978.708C526.583 979.717 529.471 980.542 533 980.542 536.529 980.542 539.417 979.717 539.417 978.708L539.417 975.042C539.417 976.05 536.529 976.875 533 976.875Z" fill="#AFABAB"/><path d="M537.583 983.292C537.308 983.292 537.125 983.108 537.125 982.833 537.125 982.558 537.308 982.375 537.583 982.375 537.858 982.375 538.042 982.558 538.042 982.833 538.042 983.108 537.858 983.292 537.583 983.292ZM533 981.458C529.471 981.458 526.583 980.633 526.583 979.625L526.583 983.292C526.583 984.3 529.471 985.125 533 985.125 536.529 985.125 539.417 984.3 539.417 983.292L539.417 979.625C539.417 980.633 536.529 981.458 533 981.458Z" fill="#AFABAB"/><path d="M537.583 987.875C537.308 987.875 537.125 987.692 537.125 987.417 537.125 987.142 537.308 986.958 537.583 986.958 537.858 986.958 538.042 987.142 538.042 987.417 538.042 987.692 537.858 987.875 537.583 987.875ZM533 986.042C529.471 986.042 526.583 985.217 526.583 984.208L526.583 987.875C526.583 988.883 529.471 989.708 533 989.708 536.529 989.708 539.417 988.883 539.417 987.875L539.417 984.208C539.417 985.217 536.529 986.042 533 986.042Z" fill="#AFABAB"/></g></svg>